<svg width="250" height="51" viewBox="0 0 250 51" fill="none" xmlns="http://www.w3.org/2000/svg">
<path d="M205.75 11.1326V12.9872H202.193V18.9345H205.746V38.1101H213.685V18.9345H220.275V12.9872H213.03V11.1326C213.03 9.12965 214.754 7.50022 216.873 7.50022H220.275V0.617676H216.873C210.739 0.617676 205.75 5.33455 205.75 11.1326Z" fill="white"/>
<path d="M250 11.6243H242.397L236.263 30.3973L229.352 11.6243H221.112L232.421 38.685L228.437 50.8824H235.459L240.366 37.6394H240.36L250 11.6243Z" fill="white"/>
<path d="M198.909 1.59844H190.971V9.05469H198.909V1.59844Z" fill="white"/>
<path d="M198.909 11.6243H190.971V38.1104H198.909V11.6243Z" fill="white"/>
<path d="M187.089 11.2833H186.238C185.46 11.2833 184.646 11.4331 183.815 11.7288C183.001 12.0198 182.191 12.4418 181.402 12.9838C180.619 13.5225 179.881 14.1605 179.208 14.8806C178.93 15.1773 178.667 15.4908 178.418 15.8202V11.6242H171.046V38.1101H178.984V22.3018C179.661 20.9859 180.726 20.0199 182.238 19.3502C183.81 18.6537 185.626 18.2845 187.638 18.2533L188.148 18.2451V11.4202L187.729 11.3414C187.523 11.303 187.307 11.2833 187.089 11.2833Z" fill="white"/>
<path d="M163.987 15.2797C162.726 14.0376 161.18 13.0348 159.392 12.2978C157.599 11.5604 155.546 11.1864 153.29 11.1864C151.032 11.1864 148.963 11.56 147.139 12.2964C145.315 13.0329 143.741 14.0449 142.463 15.3042C141.184 16.5629 140.195 18.0425 139.521 19.7022C138.849 21.3562 138.508 23.1431 138.508 25.0134C138.508 26.8215 138.859 28.569 139.549 30.208C140.241 31.8509 141.239 33.3137 142.517 34.5547C143.796 35.7972 145.36 36.7924 147.167 37.5121C148.974 38.2317 151.016 38.597 153.238 38.597C156.34 38.597 159.054 37.9427 161.307 36.6522C163.562 35.3599 165.232 33.6771 166.269 31.6517L166.54 31.1216L159.573 29.2891L159.398 29.6952C158.995 30.6338 158.253 31.3732 157.132 31.9555C155.996 32.5451 154.773 32.8441 153.495 32.8441C152.669 32.8441 151.865 32.7074 151.103 32.4375C150.341 32.1673 149.652 31.7731 149.054 31.2661C148.455 30.7591 147.958 30.137 147.577 29.4167C147.27 28.8363 147.053 28.1772 146.93 27.4518H167.595L167.695 27.0793C167.771 26.7869 167.819 26.4365 167.839 26.0067C167.856 25.6107 167.864 25.1988 167.864 24.7701C167.864 22.9994 167.533 21.2707 166.878 19.6317C166.221 17.9874 165.249 16.5231 163.987 15.2797ZM146.812 22.2342C146.913 21.5603 147.11 20.9308 147.401 20.3585C147.763 19.6403 148.237 19.0177 148.807 18.5088C149.374 18.0023 150.038 17.6009 150.78 17.3171C151.523 17.0339 152.332 16.8904 153.187 16.8904C154.954 16.8904 156.413 17.4132 157.648 18.4882C158.757 19.455 159.417 20.6845 159.656 22.2342H146.812Z" fill="white"/>
<path d="M133.987 2.57177L124.57 27.7317L115.055 2.57177H106.46L121.232 38.1104H127.914L142.581 2.57177H133.987Z" fill="white"/>
<path d="M107.434 11.6726H98.6893L88.6309 22.3584V1.59844H80.6921V38.1101H88.6309V30.2314L91.7352 27.3379L99.3657 38.1101H108L96.9044 23.0046L107.434 11.6726Z" fill="white"/>
<path d="M77.3615 16.285V11.6243H54.6469V17.1824H68.467L54.0291 33.4488V38.1104H77.619V32.5523H63.0216L77.3615 16.285Z" fill="white"/>
<path d="M29.6058 28.4854H19.256L29.5155 39.839H10.3871V28.4107L0.00220712 39.9029H0V48.1879H39.9254V39.9029H39.9231L29.6058 28.4854Z" fill="white"/>
<path d="M0 1.54645V9.83146H0.00220712L10.3871 21.3238V9.76753H29.6721V9.83146H29.5731L19.0942 21.4279H29.4442L39.9231 9.83146H39.9254V1.54645H0Z" fill="white"/>
</svg>
